<svg id="Слой_1" data-name="Слой 1" xmlns="http://www.w3.org/2000/svg" viewBox="0 0 157 222"><defs><style>.cls-1{fill:#fff;}</style></defs><path class="cls-1" d="M198.92,46H60.08a6.28,6.28,0,0,0-5.7,3.91l-2.77,6.37c-2,4.52,1.08,9.72,5.7,9.72H201.69c4.62,0,7.67-5.2,5.7-9.72l-2.77-6.37A6.28,6.28,0,0,0,198.92,46Z" transform="translate(-51 -23)"/><rect class="cls-1" x="53" width="52" height="14" rx="5.54"/><path class="cls-1" d="M196.58,74H62.42a8.33,8.33,0,0,0-8.27,9.35l17.92,145.9A17.93,17.93,0,0,0,89.87,245h79.26a17.93,17.93,0,0,0,17.8-15.75l17.92-145.9A8.33,8.33,0,0,0,196.58,74Zm-95.2,148.51-5.6.49a8.18,8.18,0,0,1-8.87-7.45L77.18,104.36a8.18,8.18,0,0,1,7.44-8.87l5.6-.49a8.18,8.18,0,0,1,8.87,7.45l9.73,111.19A8.18,8.18,0,0,1,101.38,222.51Zm39.62-7.7a8.19,8.19,0,0,1-8.19,8.19h-5.62a8.19,8.19,0,0,1-8.19-8.19V103.19A8.19,8.19,0,0,1,127.19,95h5.62a8.19,8.19,0,0,1,8.19,8.19Zm41.82-110.45-9.73,111.19a8.18,8.18,0,0,1-8.87,7.45l-5.6-.49a8.18,8.18,0,0,1-7.44-8.87l9.73-111.19A8.18,8.18,0,0,1,169.78,95l5.6.49A8.18,8.18,0,0,1,182.82,104.36Z" transform="translate(-51 -23)"/></svg>