<svg id="Слой_1" data-name="Слой 1" xmlns="http://www.w3.org/2000/svg" viewBox="0 0 19 32"><defs><style>.cls-1{fill:#fff;}</style></defs><path class="cls-1" d="M24.11,32H8.89A1.89,1.89,0,0,1,7,30.11V7.88a.61.61,0,0,1,.61-.61H25.39a.61.61,0,0,1,.61.61V30.11A1.89,1.89,0,0,1,24.11,32Z" transform="translate(-7 0)"/><path class="cls-1" d="M8.89,1.45H24.11A1.89,1.89,0,0,1,26,3.34V5.22a.6.6,0,0,1-.6.6H7.6a.6.6,0,0,1-.6-.6V3.34A1.89,1.89,0,0,1,8.89,1.45Z" transform="translate(-7 0)"/><path class="cls-1" d="M19.67,1.45H13.33V1a1,1,0,0,1,1-1h4.28a1,1,0,0,1,1,1Z" transform="translate(-7 0)"/></svg>