<svg id="Слой_1" data-name="Слой 1" xmlns="http://www.w3.org/2000/svg" viewBox="0 0 46.75 50"><defs><style>.cls-1{fill:#fff;}</style></defs><path class="cls-1" d="M49.18,37a5.79,5.79,0,0,1,0-10l4.65-2.68a1.66,1.66,0,0,0,.6-2.25L51.57,17.1a1.65,1.65,0,0,0-2.24-.6l-4.65,2.68a5.78,5.78,0,0,1-8.68-5V8.64A1.65,1.65,0,0,0,34.36,7H28.64A1.65,1.65,0,0,0,27,8.64v5.54a5.78,5.78,0,0,1-8.68,5l-4.8-2.76a1.63,1.63,0,0,0-2.24.6L8.42,22A1.66,1.66,0,0,0,9,24.22L13.81,27a5.79,5.79,0,0,1,0,10L8.87,39.86a1.65,1.65,0,0,0-.6,2.24l2.86,4.95a1.63,1.63,0,0,0,2.24.6l5-2.85a5.79,5.79,0,0,1,8.68,5v5.55A1.65,1.65,0,0,0,28.64,57h5.72A1.65,1.65,0,0,0,36,55.36V49.82a5.78,5.78,0,0,1,8.68-5l4.8,2.76a1.63,1.63,0,0,0,2.24-.6L54.58,42a1.66,1.66,0,0,0-.6-2.25ZM32.94,40.88a8.5,8.5,0,1,1,6.94-6.94A8.5,8.5,0,0,1,32.94,40.88Z" transform="translate(-8.05 -7)"/></svg>