<svg id="Слой_1" data-name="Слой 1" xmlns="http://www.w3.org/2000/svg" viewBox="0 0 256 256"><defs><style>.cls-1{fill:#fff;}</style></defs><rect class="cls-1" x="84.85" width="29.28" height="13"/><rect class="cls-1" x="142.36" y="243.23" width="28.36" height="12.77"/><rect class="cls-1" x="84.85" y="243.23" width="29.28" height="12.77"/><path class="cls-1" d="M199,13h27.73a16.67,16.67,0,0,1,16.67,16.68V57H256V24.15A24.15,24.15,0,0,0,231.85,0H199Z"/><rect class="cls-1" x="243.36" y="85.22" width="12.64" height="28.78"/><rect class="cls-1" x="243.36" y="142.23" width="12.64" height="28.87"/><path class="cls-1" d="M13.13,57V29.68A16.68,16.68,0,0,1,29.81,13H56.62V0H24.15A24.15,24.15,0,0,0,0,24.15V57Z"/><path class="cls-1" d="M56.62,243.23H29.81a16.68,16.68,0,0,1-16.68-16.68V199.33H0v32.52A24.15,24.15,0,0,0,24.15,256H56.62Z"/><rect class="cls-1" y="85.22" width="13.13" height="28.78"/><path class="cls-1" d="M243.36,199.33v27.22a16.67,16.67,0,0,1-16.67,16.68H199V256h32.89A24.15,24.15,0,0,0,256,231.85V199.33Z"/><rect class="cls-1" y="142.23" width="13.13" height="28.87"/><rect class="cls-1" x="142.36" width="28.36" height="13"/><path class="cls-1" d="M169.49,123h-34a2.51,2.51,0,0,1-2.51-2.51v-34A2.51,2.51,0,0,0,130.49,84h-5A2.51,2.51,0,0,0,123,86.51v34a2.51,2.51,0,0,1-2.51,2.51h-34A2.51,2.51,0,0,0,84,125.51v5A2.51,2.51,0,0,0,86.51,133h34a2.51,2.51,0,0,1,2.51,2.51v34a2.51,2.51,0,0,0,2.51,2.51h5a2.51,2.51,0,0,0,2.51-2.51v-34a2.51,2.51,0,0,1,2.51-2.51h34a2.51,2.51,0,0,0,2.51-2.51v-5A2.51,2.51,0,0,0,169.49,123Z"/></svg>