<svg id="Слой_1" data-name="Слой 1" xmlns="http://www.w3.org/2000/svg" viewBox="0 0 229.9 252"><defs><style>.cls-1{fill:#fff;}.cls-2{fill:none;stroke:#fff;stroke-miterlimit:10;stroke-width:16px;}</style></defs><path class="cls-1" d="M178.05,3.49c-8.41-3.7-19.36,0-23.22,5.87L21.56,213.66c-3.85,5.9-14.88,36.26-6.48,40S48.15,233,52,227.07L185.27,22.77C189.12,16.87,186.46,7.19,178.05,3.49Zm-4.14,16.39L69.31,180.23c-1.5,2.3-5,3.16-7.77,1.93s-3.85-4.09-2.35-6.39L163.8,15.43c1.5-2.3,5-3.16,7.77-1.93S175.41,17.59,173.91,19.88Z" transform="translate(-12 -2)"/><path class="cls-2" d="M80.5,238.5c43.81,9,82.1,1.52,97-22,7.83-12.36,10.94-25.5,2-33-10.46-8.78-37.62-6.73-42,9-4.5,16.16,16.63,36.49,37,41,21.33,4.72,64-8,59-59" transform="translate(-12 -2)"/></svg>